<svg height="511pt" viewBox="1 -4 511.99896 511" width="511pt" xmlns="http://www.w3.org/2000/svg"><path d="m349.1875 473.949219-93.1875 14.59375-93.1875-14.59375 28.558594-54.207031 69.371094-31.394532 59.886718 31.394532zm0 0" fill="#353a59"/><path d="m470.898438 419.742188h-429.796876c-22.699218 0-41.101562-18.398438-41.101562-41.097657v-280.558593c0-22.699219 18.402344-41.101563 41.101562-41.101563h429.796876c22.699218 0 41.101562 18.402344 41.101562 41.101563v280.558593c0 22.699219-18.402344 41.097657-41.101562 41.097657zm0 0" fill="#4c5072"/><path d="m364.347656 503.136719h-216.695312c-8.0625 0-14.59375-6.535157-14.59375-14.59375 0-8.058594 6.53125-14.59375 14.59375-14.59375h216.695312c8.0625 0 14.59375 6.535156 14.59375 14.59375 0 8.058593-6.53125 14.59375-14.59375 14.59375zm0 0" fill="#4c5072"/><path d="m452.335938 354.761719h-392.671876c-18.5 0-33.496093-14.996094-33.496093-33.496094v-201.359375c0-18.496094 14.996093-33.492188 33.496093-33.492188h392.671876c18.5 0 33.496093 14.996094 33.496093 33.492188v201.359375c0 18.5-14.996093 33.496094-33.496093 33.496094zm0 0" fill="#b4d2d7"/><path d="m452.335938 362.597656h-392.671876c-22.792968 0-41.332031-18.542968-41.332031-41.332031v-201.359375c0-22.789062 18.542969-41.328125 41.332031-41.328125h392.671876c22.792968 0 41.332031 18.539063 41.332031 41.328125v201.359375c0 22.792969-18.542969 41.332031-41.332031 41.332031zm-392.671876-268.347656c-14.148437 0-25.660156 11.511719-25.660156 25.65625v201.359375c0 14.148437 11.511719 25.660156 25.660156 25.660156h392.671876c14.148437 0 25.660156-11.511719 25.660156-25.660156v-201.359375c0-14.148438-11.511719-25.65625-25.660156-25.65625zm0 0" fill="#353a59"/><path d="m456.367188 26.265625v131.636719c0 14.230468-11.527344 25.769531-25.757813 25.769531h-195.628906c-9.824219 0-18.355469-5.5-22.703125-13.585937-1.949219-3.625-3.058594-7.777344-3.058594-12.183594v-131.636719c0-14.230469 11.53125-25.765625 25.761719-25.765625h195.628906c14.230469 0 25.757813 11.539062 25.757813 25.765625zm0 0" fill="#bce8f1"/><path d="m456.367188 154.800781v3.101563c0 14.230468-11.527344 25.769531-25.757813 25.769531h-150.722656l85.046875-128.011719c2.480468-3.734375 6.183594-5.941406 10.113281-6.613281 5.695313-.996094 11.855469 1.210937 15.449219 6.613281zm0 0" fill="#f9d35a"/><path d="m375.046875 49.046875-31.441406 134.625h-63.71875l85.046875-128.011719c2.480468-3.730468 6.183594-5.9375 10.113281-6.613281zm0 0" fill="#f7aa5c"/><path d="m341.480469 183.671875h-106.5c-9.824219 0-18.355469-5.5-22.703125-13.585937l47.308594-71.203126c3.800781-5.710937 10.476562-7.851562 16.425781-6.417968 3.5625.867187 6.863281 2.996094 9.128906 6.417968zm0 0" fill="#f9d35a"/><path d="m276.011719 92.464844-19.828125 91.207031h-21.203125c-9.820313 0-18.355469-5.5-22.703125-13.585937l47.3125-71.203126c3.796875-5.710937 10.472656-7.851562 16.421875-6.417968zm0 0" fill="#f7aa5c"/><path d="m323.941406 38.136719c0 10.03125-8.128906 18.160156-18.160156 18.160156s-18.160156-8.128906-18.160156-18.160156 8.128906-18.160157 18.160156-18.160157 18.160156 8.128907 18.160156 18.160157zm0 0" fill="#ff435e"/><path d="m312.082031 55.171875c-1.964843.726563-4.089843 1.125-6.300781 1.125-10.027344 0-18.160156-8.128906-18.160156-18.160156 0-10.027344 8.132812-18.160157 18.160156-18.160157 2.210938 0 4.332031.394532 6.300781 1.121094-6.925781 2.5625-11.859375 9.222656-11.859375 17.039063 0 7.820312 4.933594 14.480469 11.859375 17.035156zm0 0" fill="#e51c42"/><path d="m239.46875 222.878906h-149.953125c-11.886719 0-21.519531 9.632813-21.519531 21.519532v120.617187c0 11.886719 9.632812 21.519531 21.519531 21.519531h149.953125c11.886719 0 21.523438-9.632812 21.523438-21.519531v-120.617187c0-11.886719-9.636719-21.519532-21.523438-21.519532zm0 0" fill="#fff"/><g fill="#353a59"><path d="m226.664062 277.71875h-124.34375c-4.328124 0-7.835937-3.507812-7.835937-7.835938 0-4.328124 3.507813-7.835937 7.835937-7.835937h124.34375c4.328126 0 7.839844 3.507813 7.839844 7.835937 0 4.328126-3.511718 7.835938-7.839844 7.835938zm0 0"/><path d="m226.664062 311.933594h-124.34375c-4.328124 0-7.835937-3.507813-7.835937-7.835938s3.507813-7.835937 7.835937-7.835937h124.34375c4.328126 0 7.839844 3.507812 7.839844 7.835937s-3.511718 7.835938-7.839844 7.835938zm0 0"/><path d="m165.164062 347.367188h-62.84375c-4.328124 0-7.835937-3.507813-7.835937-7.835938s3.507813-7.835938 7.835937-7.835938h62.84375c4.328126 0 7.835938 3.507813 7.835938 7.835938s-3.507812 7.835938-7.835938 7.835938zm0 0"/><path d="m188.507812 503.132812h-40.855468c-8.058594 0-14.597656-6.53125-14.597656-14.585937 0-4.035156 1.640624-7.683594 4.273437-10.324219 2.644531-2.644531 6.289063-4.273437 10.324219-4.273437h40.855468c-4.035156 0-7.679687 1.628906-10.324218 4.273437-2.644532 2.640625-4.273438 6.289063-4.273438 10.324219 0 8.054687 6.53125 14.585937 14.597656 14.585937zm0 0"/><path d="m60.15625 419.746094h-19.058594c-22.695312 0-41.097656-18.402344-41.097656-41.097656v-280.5625c0-22.695313 18.402344-41.097657 41.097656-41.097657h18.566406c-22.464843.261719-40.605468 18.566407-40.605468 41.097657v280.5625c0 22.695312 18.402344 41.097656 41.097656 41.097656zm0 0"/></g></svg>