<svg id="Capa_1" enable-background="new 0 0 512 512" height="512" viewBox="0 0 512 512" width="512" xmlns="http://www.w3.org/2000/svg"><g><g><path d="m455.277 149.974c-35.863 37.513-86.187 59.026-138.086 59.026h-40.857l-57.334 10-10.001 40.072 10.001 43.928h98.191c51.899 0 102.221 21.51 138.083 59.022l30.639 33.096v-278.237z" fill="#fdcb02"/><path d="m17.936 209v94h201.064v-84l-57.999-10z" fill="#fde023"/></g><path d="m482 96h30v320h-30z" fill="#f90"/><path d="m0 181.333h30v149.333h-30z" fill="#fdae02"/><g><path d="m277.333 209h-58.333l-10.001 13.334 10.001 16.666h58.334c27.019 0 49 21.982 49 49 0 27.019-21.981 49-49 49h-58.334l-10.001 15.999 10.001 14.001h58.334c43.561 0 79-35.439 79-79-.001-43.561-35.44-79-79.001-79z" fill="#f90"/><path d="m160 337c-27.019 0-49-21.981-49-49 0-27.018 21.981-49 49-49h59v-30h-59c-43.561 0-79 35.439-79 79s35.439 79 79 79h59v-30z" fill="#fdae02"/></g><path d="m161 181.333h30v213.333h-30z" fill="#fdcb02"/><path d="m246.333 181.333h30v213.333h-30z" fill="#fdae02"/></g></svg>