<svg height="512" viewBox="0 0 64 64" width="512" xmlns="http://www.w3.org/2000/svg"><g id="Source_code" data-name="Source code"><path d="m3 11v46a4 4 0 0 0 4 4h50a4 4 0 0 0 4-4v-46z" fill="#ffeb99"/><path d="m57 3h-50a4 4 0 0 0 -4 4v4h58v-4a4 4 0 0 0 -4-4z" fill="#004fac"/><path d="m3 30v27a4 4 0 0 0 4 4h27a30.982 30.982 0 0 1 -31-31z" fill="#ffde55"/><path d="m6 6h2v2h-2z" fill="#f1f2f2"/><path d="m10 6h2v2h-2z" fill="#f1f2f2"/><path d="m14 6h2v2h-2z" fill="#f1f2f2"/><g fill="#ffcd00"><path d="m11 56a1 1 0 0 1 -1-1v-38a1 1 0 0 1 2 0v38a1 1 0 0 1 -1 1z"/><path d="m20 24a1 1 0 0 1 -.707-.293l-3-3a1 1 0 0 1 0-1.414l3-3a1 1 0 0 1 1.414 1.414l-2.293 2.293 2.293 2.293a1 1 0 0 1 -.707 1.707z"/><path d="m28 24a1 1 0 0 1 -.707-1.707l2.293-2.293-2.293-2.293a1 1 0 0 1 1.414-1.414l3 3a1 1 0 0 1 0 1.414l-3 3a1 1 0 0 1 -.707.293z"/><path d="m23 25a.968.968 0 0 1 -.243-.03 1 1 0 0 1 -.728-1.213l2-8a1 1 0 0 1 1.94.486l-2 8a1 1 0 0 1 -.969.757z"/><path d="m19 29h4v2h-4z"/><path d="m25 29h6v2h-6z"/><path d="m23 33h19v2h-19z"/><path d="m45 33h9v2h-9z"/><path d="m23 37h2v2h-2z"/><path d="m27 37h18v2h-18z"/><path d="m47 37h7v2h-7z"/><path d="m19 41h4v2h-4z"/><path d="m25 41h6v2h-6z"/><path d="m23 45h19v2h-19z"/><path d="m45 45h9v2h-9z"/><path d="m23 49h11v2h-11z"/><path d="m36 49h2v2h-2z"/><path d="m42 49h8v2h-8z"/><path d="m19 54h4v2h-4z"/><path d="m25 54h6v2h-6z"/></g></g></svg>